<svg width="48" height="48" viewBox="0 0 48 48" fill="none" xmlns="http://www.w3.org/2000/svg">
<path d="M14 28C10.6863 28 8 30.6862 8 34C8 37.3138 10.6863 40 14 40C14.7013 40 15.3744 39.8796 16 39.6586" stroke="black" stroke-width="1.5" stroke-linecap="round" stroke-linejoin="round"/>
<path d="M8.52776 31.2092C5.84852 29.9164 4 27.174 4 24C4 21.5766 5.07746 19.405 6.77948 17.938" stroke="black" stroke-width="1.5" stroke-linecap="round" stroke-linejoin="round"/>
<path d="M6.84106 17.7764C6.3098 16.9822 6 16.0273 6 15C6 12.2386 8.23858 10 11 10C12.1258 10 13.1647 10.3721 14.0005 11" stroke="black" stroke-width="1.5" stroke-linecap="round" stroke-linejoin="round"/>
<path d="M14.4754 11.1307C14.1705 10.4843 14 9.76206 14 9C14 6.23858 16.2386 4 19 4C21.7614 4 24 6.23858 24 9V40" stroke="black" stroke-width="1.5" stroke-linecap="round" stroke-linejoin="round"/>
<path d="M16 40C16 42.2092 17.7909 44 20 44C22.2092 44 24 42.2092 24 40" stroke="black" stroke-width="1.5" stroke-linecap="round" stroke-linejoin="round"/>
<path d="M24 14C24 17.3137 26.6862 20 30 20" stroke="black" stroke-width="1.5" stroke-linecap="round" stroke-linejoin="round"/>
<path d="M41.2202 17.938C42.9222 19.405 43.9998 21.5766 43.9998 24C43.9998 25.4062 43.637 26.7276 42.9998 27.8758" stroke="black" stroke-width="1.5" stroke-linecap="round" stroke-linejoin="round"/>
<path d="M41.1589 17.7764C41.6901 16.9822 41.9999 16.0273 41.9999 15C41.9999 12.2386 39.7613 10 36.9999 10C35.8741 10 34.8351 10.3721 33.9995 11" stroke="black" stroke-width="1.5" stroke-linecap="round" stroke-linejoin="round"/>
<path d="M24 9C24 6.23858 26.2386 4 29 4C31.7614 4 34 6.23858 34 9C34 9.76206 33.8296 10.4843 33.5246 11.1307" stroke="black" stroke-width="1.5" stroke-linecap="round" stroke-linejoin="round"/>
<path d="M28 44C25.7908 44 24 42.2092 24 40" stroke="black" stroke-width="1.5" stroke-linecap="round" stroke-linejoin="round"/>
<path d="M37.3334 32L34 38H42L38.6666 44" stroke="black" stroke-width="1.5" stroke-linecap="round" stroke-linejoin="round"/>
</svg>
