<svg width="1300" height="1163" viewBox="200 209.19911193847656 774.1592407226562 750"  fill="none" xmlns="http://www.w3.org/2000/svg">
<path d="M315.29 848.197C249.413 792.774 208.252 702.792 204.014 611.698C199.695 521.495 230.517 430.017 284.083 354.989C336.757 279.879 413.066 221.302 491.045 213.17C569.915 205.119 651.264 248.486 719.901 293.384C789.346 339.254 845.997 387.545 891.139 453.643C936.282 519.741 969.026 603.565 958.129 683.395C946.341 763.144 889.941 839.709 816.799 883.309C743.658 926.909 653.774 937.544 563.577 931.985C472.489 926.344 381.086 904.51 315.29 848.197Z" stroke="#122230" stroke-width="4"></path>
<path d="M521.171 953.308C435.388 946.035 349.861 896.275 293.853 824.309C238.293 753.117 210.703 660.612 211.18 568.426C210.882 476.688 239.426 384.821 298.433 333.197C358.215 281.126 449.682 269.626 531.647 266.709C614.834 264.12 688.966 270.89 763.969 298.843C838.971 326.796 914.071 376.381 951.218 447.877C987.591 519.82 985.685 614.897 951.088 692.702C916.491 770.508 849.204 831.043 772.318 878.531C694.658 926.466 607.4 961.354 521.171 953.308Z" stroke="#2F9797" stroke-width="4"></path>
</svg>