<svg width="49" height="48" viewBox="0 0 49 48" fill="none" xmlns="http://www.w3.org/2000/svg">
<path d="M24.5 46C25.6046 46 26.5 45.1046 26.5 44C26.5 42.8954 25.6046 42 24.5 42C23.3954 42 22.5 42.8954 22.5 44C22.5 45.1046 23.3954 46 24.5 46Z" fill="black" stroke="black" stroke-width="1.5" stroke-linecap="round" stroke-linejoin="round"/>
<path d="M6.5 16C7.60456 16 8.5 15.1046 8.5 14C8.5 12.8954 7.60456 12 6.5 12C5.39544 12 4.5 12.8954 4.5 14C4.5 15.1046 5.39544 16 6.5 16Z" fill="black" stroke="black" stroke-width="1.5" stroke-linecap="round" stroke-linejoin="round"/>
<path d="M6.5 36C7.60456 36 8.5 35.1046 8.5 34C8.5 32.8954 7.60456 32 6.5 32C5.39544 32 4.5 32.8954 4.5 34C4.5 35.1046 5.39544 36 6.5 36Z" fill="black" stroke="black" stroke-width="1.5" stroke-linecap="round" stroke-linejoin="round"/>
<path d="M42.5 14.7061V33.294C42.5 33.7298 42.2638 34.1312 41.8828 34.343L25.0828 43.6762C24.7204 43.8776 24.2796 43.8776 23.9172 43.6762L7.11726 34.343C6.73632 34.1312 6.50004 33.7298 6.50004 33.294L6.5 14.7061C6.5 14.2703 6.73628 13.8687 7.11724 13.6571L23.9172 4.32376C24.2796 4.12243 24.7204 4.12243 25.0828 4.32376L41.8828 13.6571C42.2636 13.8687 42.5 14.2703 42.5 14.7061Z" stroke="black" stroke-width="1.5" stroke-linecap="round" stroke-linejoin="round"/>
<path d="M7.55664 14.5873L23.917 23.6764C24.2794 23.8776 24.7202 23.8776 25.0826 23.6764L41.4998 14.5557" stroke="black" stroke-width="1.5" stroke-linecap="round" stroke-linejoin="round"/>
<path d="M24.5 42V24" stroke="black" stroke-width="1.5" stroke-linecap="round" stroke-linejoin="round"/>
</svg>
