<svg width="32" height="32" viewBox="0 0 32 32" fill="none" xmlns="http://www.w3.org/2000/svg">
<path d="M12.7884 26.0993C12.4023 25.916 12.1086 25.6329 11.9348 25.2765L11.7818 24.9628L11.3788 24.98C10.6874 25.0094 10.1196 24.6499 9.80743 23.9852C9.63173 23.6112 9.62954 23.6094 9.32452 23.6079C8.52365 23.6039 7.7809 22.887 7.68268 22.0232C7.64757 21.7146 7.62744 21.683 7.43827 21.6405C6.8921 21.5178 6.38233 21.0524 6.17522 20.4876C6.00785 20.031 6.05658 19.3728 6.28434 19.0143L6.45572 18.7445L5.97803 18.1277C5.28522 17.2331 5.33849 17.2524 5.04921 17.7912C4.84544 18.1709 4.75373 18.2717 4.50985 18.3841C4.31251 18.475 4.15088 18.5047 4.01786 18.4742C3.80561 18.4257 1.83612 17.2109 1.60049 16.9832C1.52263 16.908 1.42298 16.7126 1.37901 16.5492C1.30917 16.2895 1.31538 16.2139 1.42789 15.9512C1.4988 15.7857 2.50488 13.8982 3.66381 11.7569C4.82274 9.61559 5.87043 7.67078 5.99211 7.43508C6.11378 7.19962 6.28933 6.94452 6.38218 6.86845C6.6004 6.68967 6.94545 6.62408 7.19386 6.71426C7.5234 6.83393 9.37878 8.04656 9.54252 8.24915C9.79124 8.55714 9.81334 8.87498 9.6169 9.32195C9.52406 9.53329 9.44801 9.71507 9.44801 9.72579C9.44801 9.77703 10.5009 10.3722 10.7048 10.4361C10.8321 10.4763 11.2627 10.5608 11.6616 10.6242L12.387 10.7396L12.4866 10.5764C12.9734 9.77924 14.0642 9.46526 16.8895 9.30926C17.9251 9.25218 18.858 9.35648 20.3178 9.69331C20.9665 9.84285 21.6392 9.96536 21.8128 9.96536C22.071 9.96536 22.5044 9.86824 22.5995 9.78917C22.6113 9.77924 22.5442 9.62142 22.4505 9.43822C22.2348 9.01546 22.2272 8.61989 22.4292 8.31135C22.528 8.16016 22.9443 7.85264 23.6693 7.39511C24.9104 6.61194 25.1398 6.5391 25.5196 6.80807C25.7752 6.98875 25.8067 7.04282 27.5699 10.3098C28.2347 11.5416 29.1912 13.3103 29.6955 14.2401C30.1999 15.1698 30.6309 16.0278 30.6537 16.1462C30.7086 16.4321 30.5873 16.7936 30.3651 17.006C30.1203 17.2404 28.2426 18.4135 28.0293 18.4654C27.6489 18.5579 27.214 18.2928 26.9729 17.821C26.7251 17.3362 26.7627 17.3324 26.2029 17.8979C25.9191 18.1846 25.5613 18.5051 25.4079 18.6101C25.1328 18.7984 25.1303 18.8039 25.226 18.9967C25.2793 19.1043 25.3225 19.3722 25.3217 19.592C25.3182 20.5128 24.7092 21.2215 23.841 21.3149L23.5002 21.3515L23.3844 21.7607C23.2314 22.3018 22.8337 22.7287 22.3407 22.8813C22.1487 22.9406 21.924 22.9892 21.8409 22.9892C21.7192 22.9892 21.6759 23.0457 21.616 23.2821C21.5052 23.7199 21.2449 24.143 20.9702 24.3315C20.8195 24.435 20.5359 24.5311 20.2299 24.5823C19.7448 24.6635 19.7258 24.6743 19.3831 25.065C18.5105 26.06 17.3953 26.1816 15.3495 25.5047L14.8425 25.3371L14.5419 25.676C14.3765 25.8624 14.1311 26.0628 13.9965 26.1214C13.6687 26.2642 13.114 26.254 12.7884 26.0993V26.0993ZM13.9011 24.9703C14.5028 24.1995 14.872 23.5913 14.872 23.3711C14.872 23.0436 14.6208 22.6975 14.2979 22.5804C14.0554 22.4923 14.0081 22.4938 13.8618 22.5936C13.6858 22.7138 12.8039 23.9054 12.678 24.1932C12.4895 24.6243 12.931 25.2633 13.4174 25.2633C13.6376 25.2633 13.7038 25.2232 13.9011 24.9703ZM18.002 24.9137C18.141 24.8735 18.3755 24.7271 18.5229 24.5883L18.791 24.336L17.3302 23.5996C16.04 22.9492 15.8642 22.841 15.8237 22.6726C15.7648 22.4282 15.9072 22.1583 16.1369 22.0789C16.2842 22.0279 16.5482 22.1399 17.8898 22.8227C19.3688 23.5755 19.4949 23.6269 19.8751 23.631C20.3805 23.6363 20.5915 23.507 20.7013 23.1243C20.7679 22.8935 20.7654 22.8298 20.6876 22.7546C20.636 22.7045 19.8494 22.2206 18.9399 21.6791C18.0304 21.1376 17.2343 20.648 17.1706 20.5909C16.9879 20.4272 17.0206 20.0641 17.2339 19.8894C17.3412 19.8014 17.4675 19.7569 17.5495 19.7784C17.6246 19.798 18.5133 20.3114 19.5247 20.9193C21.1325 21.8857 21.3996 22.0245 21.6523 22.0245C21.8111 22.0245 22.0174 21.9942 22.1106 21.9573C22.3467 21.8638 22.552 21.4932 22.5299 21.2011C22.5122 20.9674 22.4792 20.9431 20.521 19.7195C19.426 19.0354 18.4808 18.4331 18.4208 18.3811C18.2528 18.2355 18.276 17.7858 18.4585 17.6526C18.5395 17.5936 18.6577 17.5453 18.7214 17.5453C18.785 17.5453 19.8544 18.1811 21.0978 18.958C23.1353 20.2313 23.3875 20.3706 23.6528 20.3706C23.8994 20.3706 23.9837 20.3326 24.1722 20.1364C24.3506 19.9505 24.3971 19.8468 24.3971 19.6348C24.3971 19.1855 24.2163 18.9907 22.6111 17.7103C20.4917 16.0196 18.9304 14.9604 16.7422 13.7288L15.8012 13.199L15.3367 13.346C15.0812 13.4268 14.872 13.5185 14.872 13.5496C14.872 13.6823 13.8316 14.7428 13.4252 15.0242C12.8226 15.4417 12.1086 15.6848 11.4858 15.6848C10.6357 15.6848 10.2678 15.3335 10.2839 14.537C10.2949 13.9936 10.455 13.6301 11.1815 12.4989L11.7449 11.6217L11.506 11.5789C10.3397 11.3705 10.1254 11.2932 9.36432 10.8079C9.15457 10.674 8.97138 10.577 8.95715 10.5921C8.89639 10.6571 5.80998 16.3871 5.80998 16.435C5.80998 16.464 5.88753 16.5629 5.98227 16.6548C6.07708 16.7465 6.35009 17.0779 6.58898 17.3911L7.02331 17.9606L7.16171 17.8251C7.55488 17.4404 8.2828 17.3656 8.83677 17.6533C9.15207 17.817 9.5143 18.1624 9.60192 18.3828C9.63075 18.4553 9.65436 18.45 9.71013 18.3587C10.0568 17.7901 10.4555 17.5453 11.035 17.5453C11.5206 17.5453 11.7919 17.655 12.1575 17.999C12.4967 18.3183 12.6842 18.6871 12.7351 19.135C12.767 19.4155 12.7968 19.4748 12.9061 19.4748C13.1423 19.4748 13.6258 19.7762 13.8885 20.0872C14.1626 20.4115 14.3428 20.9118 14.3428 21.3479C14.3428 21.5389 14.3707 21.611 14.4447 21.611C14.6143 21.611 15.0419 21.8675 15.2722 22.1075C15.8225 22.6807 15.9591 23.6238 15.5789 24.2226L15.3979 24.5074L15.5484 24.5667C15.7148 24.6323 16.7287 24.8952 16.9887 24.9402C17.3163 24.9969 17.7542 24.9854 18.002 24.9137ZM12.5589 22.6791C13.3868 21.4998 13.428 21.4256 13.3955 21.1726C13.3337 20.6921 12.8175 20.3099 12.4246 20.4536C12.2641 20.5124 10.6735 22.6876 10.5512 23.0157C10.4244 23.3556 10.7466 23.901 11.1427 24.0167C11.4962 24.1201 11.6482 23.9765 12.5589 22.6791ZM9.65595 22.5586C9.71141 22.5112 10.1241 21.9453 10.573 21.3009C11.0218 20.6566 11.4881 20.0075 11.6092 19.8586C11.87 19.5378 11.8976 19.2273 11.6957 18.8869C11.5153 18.5827 11.0959 18.403 10.8529 18.5259C10.7534 18.5762 10.2339 19.2438 9.63385 20.0924C8.51132 21.6801 8.45631 21.8053 8.69549 22.227C8.90161 22.5905 9.41207 22.7667 9.65595 22.5586ZM8.07252 20.629C8.2965 20.4454 8.91887 19.4494 8.91864 19.2751C8.91834 19.0494 8.71093 18.6897 8.49709 18.5438C8.39797 18.4761 8.23407 18.4407 8.08054 18.4539C7.849 18.4738 7.79225 18.5243 7.41406 19.0472C7.0644 19.5307 7.00061 19.6622 7.00061 19.8995C7.00061 20.1336 7.04321 20.2245 7.25743 20.4477C7.45583 20.6543 7.56577 20.7152 7.74087 20.7152C7.86557 20.7152 8.01479 20.6764 8.07252 20.629ZM24.8426 17.8382C24.9897 17.7339 25.3709 17.3901 25.6901 17.0739C26.2701 16.4997 26.2705 16.4992 26.1674 16.3159C26.1107 16.2152 25.4028 14.9079 24.5945 13.4108C23.7862 11.9137 23.12 10.6827 23.1142 10.6755C23.1083 10.668 22.8831 10.7223 22.6136 10.796C21.994 10.9655 21.542 10.9633 20.7921 10.7871C18.4775 10.2432 18.0341 10.1936 16.4726 10.3038C15.2104 10.3928 14.0557 10.573 13.6758 10.7403C13.4825 10.8252 13.2729 11.0912 12.5423 12.1793C11.4382 13.8234 11.2575 14.1313 11.1972 14.4716L11.1495 14.7398L11.6223 14.7047C12.4589 14.6423 13.3052 14.068 14.0535 13.0549C14.3461 12.6588 14.3537 12.654 15.0897 12.4095L15.8311 12.1632L16.5588 12.544C18.8369 13.7364 21.4091 15.4742 23.7025 17.3695C24.1391 17.7304 24.5141 18.0261 24.5358 18.0266C24.5577 18.0272 24.6958 17.9424 24.8426 17.8382ZM4.41019 17.0113C4.55298 16.7554 4.95296 16.0191 5.29891 15.3746C5.64487 14.7303 6.57112 13.012 7.35723 11.5557C8.14335 10.0998 8.7866 8.88988 8.7866 8.86734C8.7866 8.84471 8.37323 8.55896 7.86807 8.23244L6.94961 7.63854L5.34152 10.6107C2.87118 15.1767 2.30421 16.237 2.30481 16.2903C2.30526 16.3393 4.01521 17.4618 4.10381 17.4714C4.12947 17.4741 4.26733 17.2672 4.41019 17.0113ZM28.8321 16.9078C29.336 16.5952 29.7424 16.3219 29.735 16.3006C29.6633 16.0901 25.0774 7.6912 25.0342 7.6912C24.9891 7.6912 23.7753 8.44836 23.2829 8.78378C23.1959 8.84306 23.3913 9.21703 27.1898 16.2534C27.553 16.9259 27.8649 17.4764 27.8831 17.4764C27.9013 17.4764 28.3284 17.2206 28.8321 16.9078Z" fill="white"/>
</svg>
