<svg width="32" height="32" viewBox="0 0 32 32" fill="none" xmlns="http://www.w3.org/2000/svg">
<path d="M27.9998 2.66663L26.6665 3.99996" stroke="white" stroke-width="1.5" stroke-linecap="round" stroke-linejoin="round"/>
<path d="M4 2.66663L5.33333 3.99996" stroke="white" stroke-width="1.5" stroke-linecap="round" stroke-linejoin="round"/>
<path d="M27.9998 21.3333L26.6665 20" stroke="white" stroke-width="1.5" stroke-linecap="round" stroke-linejoin="round"/>
<path d="M4 21.3333L5.33333 20" stroke="white" stroke-width="1.5" stroke-linecap="round" stroke-linejoin="round"/>
<path d="M12 24H20" stroke="white" stroke-width="1.5" stroke-linecap="round" stroke-linejoin="round"/>
<path d="M13.3335 28H18.6668" stroke="white" stroke-width="1.5" stroke-linecap="round" stroke-linejoin="round"/>
<path d="M15.9996 4C10.6661 4 7.93565 6.60039 7.99963 10.6667C8.03082 12.6492 8.6661 14 9.99963 15.3333C11.3332 16.6667 11.9998 17.3333 11.9996 20H19.9996C19.9998 17.3335 20.6665 16.6667 21.9994 15.3335C23.3326 14.0001 23.9685 12.6492 23.9996 10.6667C24.0636 6.60039 21.3332 4 15.9996 4Z" stroke="white" stroke-width="1.5" stroke-linecap="round" stroke-linejoin="round"/>
</svg>
