<svg width="127" height="40" viewBox="0 0 127 40" fill="none" xmlns="http://www.w3.org/2000/svg">
<g clip-path="url(#clip0_202_5269)">
<path d="M118.968 39.3519H113.142L108.623 21.2282H108.549L104.104 39.3519H98.1665L91.1082 12.7257H96.9714L101.192 30.8494H101.266L105.897 12.7257H111.387L115.943 31.0732H116.018L120.387 12.7257H126.139L118.968 39.3519Z" fill="white"/>
<path d="M68.4649 26.1507C68.4649 27.2695 68.5893 28.3634 68.8383 29.4324C69.1122 30.4766 69.5354 31.4213 70.1081 32.2666C70.6807 33.1118 71.4276 33.7955 72.3488 34.3176C73.27 34.8148 74.3904 35.0634 75.7099 35.0634C77.0295 35.0634 78.1499 34.8148 79.0711 34.3176C79.9923 33.7955 80.7392 33.1118 81.3118 32.2666C81.8844 31.4213 82.2952 30.4766 82.5442 29.4324C82.8181 28.3634 82.955 27.2695 82.955 26.1507C82.955 24.9823 82.8181 23.8511 82.5442 22.7572C82.2952 21.6633 81.8844 20.6937 81.3118 19.8485C80.7392 18.9783 79.9923 18.2946 79.0711 17.7974C78.1499 17.2753 77.0295 17.0143 75.7099 17.0143C74.3904 17.0143 73.27 17.2753 72.3488 17.7974C71.4276 18.2946 70.6807 18.9783 70.1081 19.8485C69.5354 20.6937 69.1122 21.6633 68.8383 22.7572C68.5893 23.8511 68.4649 24.9823 68.4649 26.1507ZM62.6016 26.1507C62.6016 24.1618 62.9003 22.3221 63.4979 20.6316C64.0954 18.9162 64.9543 17.4245 66.0747 16.1566C67.1951 14.8887 68.5644 13.8942 70.1828 13.1733C71.826 12.4523 73.6684 12.0918 75.7099 12.0918C77.7764 12.0918 79.6188 12.4523 81.2371 13.1733C82.8554 13.8942 84.2248 14.8887 85.3451 16.1566C86.4655 17.4245 87.3245 18.9162 87.922 20.6316C88.5195 22.3221 88.8183 24.1618 88.8183 26.1507C88.8183 28.0899 88.5195 29.9048 87.922 31.5953C87.3245 33.261 86.4655 34.7154 85.3451 35.9584C84.2248 37.2015 82.8554 38.1835 81.2371 38.9045C79.6188 39.6006 77.7764 39.9486 75.7099 39.9486C73.6684 39.9486 71.826 39.6006 70.1828 38.9045C68.5644 38.1835 67.1951 37.2015 66.0747 35.9584C64.9543 34.7154 64.0954 33.261 63.4979 31.5953C62.9003 29.9048 62.6016 28.0899 62.6016 26.1507Z" fill="white"/>
<path d="M51.9692 12.5737H58.0239V39.2763H51.9692V12.5737Z" fill="white"/>
<path d="M29.1138 12.7257H34.9771V34.4294H47.9734V39.3519H29.1138V12.7257Z" fill="white"/>
<path d="M9.52318 29.0594H16.4321L13.071 19.289H12.9963L9.52318 29.0594ZM10.0834 12.7257H16.096L26.0674 39.3519H19.98L17.9633 33.4226H7.992L5.90064 39.3519H0L10.0834 12.7257Z" fill="white"/>
<path d="M58.5284 3.52676C58.5284 5.47453 56.9471 7.05352 54.9965 7.05352C53.0459 7.05352 51.4646 5.47453 51.4646 3.52676C51.4646 1.57898 53.0459 0 54.9965 0C56.9471 0 58.5284 1.57898 58.5284 3.52676Z" fill="#FFCC33"/>
</g>
<defs>
<clipPath id="clip0_202_5269">
<rect width="126.139" height="40" fill="white"/>
</clipPath>
</defs>
</svg>
