<svg width="637" height="202" viewBox="0 0 637 202" fill="none" xmlns="http://www.w3.org/2000/svg">
<g clip-path="url(#clip0_19_1518)">
<path d="M600.789 198.727H571.368L548.548 107.202H548.171L525.728 198.727H495.741L460.097 64.2648H489.706L511.018 155.79H511.395L534.781 64.2648H562.504L585.513 156.92H585.89L607.956 64.2648H637L600.789 198.727Z" fill="#114063"/>
<path d="M345.747 132.061C345.747 137.711 346.375 143.235 347.633 148.634C349.016 153.907 351.153 158.677 354.045 162.946C356.937 167.215 360.709 170.667 365.361 173.304C370.013 175.815 375.671 177.07 382.335 177.07C388.998 177.07 394.656 175.815 399.308 173.304C403.96 170.667 407.732 167.215 410.624 162.946C413.516 158.677 415.59 153.907 416.848 148.634C418.231 143.235 418.922 137.711 418.922 132.061C418.922 126.16 418.231 120.448 416.848 114.924C415.59 109.4 413.516 104.503 410.624 100.235C407.732 95.8405 403.96 92.3879 399.308 89.8769C394.656 87.2404 388.998 85.9221 382.335 85.9221C375.671 85.9221 370.013 87.2404 365.361 89.8769C360.709 92.3879 356.937 95.8405 354.045 100.235C351.153 104.503 349.016 109.4 347.633 114.924C346.375 120.448 345.747 126.16 345.747 132.061ZM316.137 132.061C316.137 122.017 317.646 112.727 320.664 104.189C323.681 95.5266 328.019 87.9937 333.677 81.5907C339.335 75.1877 346.25 70.1658 354.422 66.5249C362.72 62.884 372.025 61.0636 382.335 61.0636C392.77 61.0636 402.074 62.884 410.247 66.5249C418.419 70.1658 425.334 75.1877 430.992 81.5907C436.65 87.9937 440.988 95.5266 444.005 104.189C447.023 112.727 448.532 122.017 448.532 132.061C448.532 141.854 447.023 151.019 444.005 159.556C440.988 167.968 436.65 175.313 430.992 181.59C425.334 187.867 418.419 192.827 410.247 196.468C402.074 199.983 392.77 201.741 382.335 201.741C372.025 201.741 362.72 199.983 354.422 196.468C346.25 192.827 339.335 187.867 333.677 181.59C328.019 175.313 323.681 167.968 320.664 159.556C317.646 151.019 316.137 141.854 316.137 132.061Z" fill="#114063"/>
<path d="M262.444 63.497H293.02V198.345H262.444V63.497Z" fill="#114063"/>
<path d="M147.024 64.2648H176.634V173.869H242.266V198.727H147.024V64.2648Z" fill="#114063"/>
<path d="M48.092 146.75H82.9823L66.0087 97.4095H65.6315L48.092 146.75ZM50.921 64.2648H81.285L131.64 198.727H100.899L90.7148 168.784H40.3596L29.7982 198.727H0L50.921 64.2648Z" fill="#114063"/>
<path d="M295.568 17.8101C295.568 27.6464 287.583 35.6203 277.732 35.6203C267.881 35.6203 259.896 27.6464 259.896 17.8101C259.896 7.97386 267.881 0 277.732 0C287.583 0 295.568 7.97386 295.568 17.8101Z" fill="#FFC40F"/>
</g>
<defs>
<clipPath id="clip0_19_1518">
<rect width="637" height="202" fill="white"/>
</clipPath>
</defs>
</svg>
