<svg width="250" height="79" viewBox="0 0 250 79" fill="none" xmlns="http://www.w3.org/2000/svg">
<g clip-path="url(#clip0_9_942)">
<path d="M234.924 77.82H223.419L214.496 41.9796H214.348L205.573 77.82H193.847L179.909 25.1655H191.487L199.821 61.006H199.968L209.112 25.1655H219.953L228.95 61.4484H229.098L237.726 25.1655H249.083L234.924 77.82Z" fill="white"/>
<path d="M135.196 51.714C135.196 53.9264 135.441 56.0896 135.933 58.2036C136.474 60.2685 137.31 62.1367 138.44 63.8083C139.571 65.4799 141.046 66.8319 142.865 67.8643C144.684 68.8476 146.897 69.3392 149.502 69.3392C152.108 69.3392 154.32 68.8476 156.139 67.8643C157.958 66.8319 159.433 65.4799 160.564 63.8083C161.695 62.1367 162.506 60.2685 162.998 58.2036C163.538 56.0896 163.809 53.9264 163.809 51.714C163.809 49.4033 163.538 47.1664 162.998 45.0031C162.506 42.8399 161.695 40.9225 160.564 39.251C159.433 37.5302 157.958 36.1782 156.139 35.195C154.32 34.1625 152.108 33.6463 149.502 33.6463C146.897 33.6463 144.684 34.1625 142.865 35.195C141.046 36.1782 139.571 37.5302 138.44 39.251C137.31 40.9225 136.474 42.8399 135.933 45.0031C135.441 47.1664 135.196 49.4033 135.196 51.714ZM123.617 51.714C123.617 47.7809 124.207 44.1428 125.387 40.7996C126.567 37.4073 128.263 34.4575 130.476 31.9501C132.688 29.4428 135.392 27.4762 138.588 26.0505C141.833 24.6247 145.471 23.9119 149.502 23.9119C153.583 23.9119 157.221 24.6247 160.417 26.0505C163.612 27.4762 166.316 29.4428 168.529 31.9501C170.741 34.4575 172.437 37.4073 173.617 40.7996C174.797 44.1428 175.387 47.7809 175.387 51.714C175.387 55.5488 174.797 59.1377 173.617 62.4809C172.437 65.7749 170.741 68.6509 168.529 71.1091C166.316 73.5673 163.612 75.5093 160.417 76.935C157.221 78.3116 153.583 78.9999 149.502 78.9999C145.471 78.9999 141.833 78.3116 138.588 76.935C135.392 75.5093 132.688 73.5673 130.476 71.1091C128.263 68.6509 126.567 65.7749 125.387 62.4809C124.207 59.1377 123.617 55.5488 123.617 51.714Z" fill="white"/>
<path d="M102.622 24.8649H114.578V77.6704H102.622V24.8649Z" fill="white"/>
<path d="M57.4899 25.1655H69.068V68.0855H94.7315V77.82H57.4899V25.1655Z" fill="white"/>
<path d="M18.8052 57.4662H32.4481L25.811 38.1448H25.6635L18.8052 57.4662ZM19.9114 25.1655H31.7844L51.4745 77.82H39.454L35.4717 66.0944H15.7816L11.6518 77.82H0L19.9114 25.1655Z" fill="white"/>
<ellipse cx="108.6" cy="6.97431" rx="6.97431" ry="6.97431" fill="#FFC40F"/>
</g>
<defs>
<clipPath id="clip0_9_942">
<rect width="250" height="79" fill="white"/>
</clipPath>
</defs>
</svg>
