<svg width="32" height="32" viewBox="0 0 32 32" fill="none" xmlns="http://www.w3.org/2000/svg">
<path d="M9.3335 24V22.6667C9.3335 18.9848 12.3183 16 16.0002 16C19.682 16 22.6668 18.9848 22.6668 22.6667V24" stroke="white" stroke-width="1.5" stroke-linecap="round" stroke-linejoin="round"/>
<path d="M1.3335 24V22.6667C1.3335 20.4575 3.12436 18.6667 5.3335 18.6667" stroke="white" stroke-width="1.5" stroke-linecap="round" stroke-linejoin="round"/>
<path d="M30.6665 24V22.6667C30.6665 20.4575 28.8757 18.6667 26.6665 18.6667" stroke="white" stroke-width="1.5" stroke-linecap="round" stroke-linejoin="round"/>
<path d="M16 16C18.2092 16 20 14.2092 20 12C20 9.79087 18.2092 8 16 8C13.7908 8 12 9.79087 12 12C12 14.2092 13.7908 16 16 16Z" stroke="white" stroke-width="1.5" stroke-linecap="round" stroke-linejoin="round"/>
<path d="M5.33317 18.6666C6.80593 18.6666 7.99984 17.4728 7.99984 16C7.99984 14.5272 6.80593 13.3333 5.33317 13.3333C3.86041 13.3333 2.6665 14.5272 2.6665 16C2.6665 17.4728 3.86041 18.6666 5.33317 18.6666Z" stroke="white" stroke-width="1.5" stroke-linecap="round" stroke-linejoin="round"/>
<path d="M26.6667 18.6666C28.1395 18.6666 29.3333 17.4728 29.3333 16C29.3333 14.5272 28.1395 13.3333 26.6667 13.3333C25.1939 13.3333 24 14.5272 24 16C24 17.4728 25.1939 18.6666 26.6667 18.6666Z" stroke="white" stroke-width="1.5" stroke-linecap="round" stroke-linejoin="round"/>
</svg>
