<svg width="48" height="48" viewBox="0 0 48 48" fill="none" xmlns="http://www.w3.org/2000/svg">
<path d="M8.80868 27.2198C7.03034 26.2896 6 25.1848 6 24C6 20.6862 14.0589 18 24 18C33.9412 18 42 20.6862 42 24C42 25.4288 40.5016 26.741 38 27.7716" stroke="black" stroke-width="1.5" stroke-linecap="round" stroke-linejoin="round"/>
<path d="M24 22.02L24.02 21.9978" stroke="black" stroke-width="1.5" stroke-linecap="round" stroke-linejoin="round"/>
<path d="M33.7653 12C33.7559 9.95404 33.2397 8.50618 32.1711 7.96168C29.2185 6.45728 23.1663 12.4182 18.6532 21.2758C14.14 30.1334 12.8748 38.5336 15.8274 40.038C16.8822 40.5754 18.3327 40.16 19.9673 39" stroke="black" stroke-width="1.5" stroke-linecap="round" stroke-linejoin="round"/>
<path d="M19.2019 8.50329C17.8811 7.73159 16.7144 7.50979 15.8274 7.96173C12.8749 9.46613 14.14 17.8662 18.6532 26.7238C23.1664 35.5814 29.2184 41.5424 32.171 40.038C34.7954 38.7008 34.0876 31.9154 30.7282 24.2032" stroke="black" stroke-width="1.5" stroke-linecap="round" stroke-linejoin="round"/>
</svg>
